<svg xmlns="http://www.w3.org/2000/svg" width="13.843" height="13.844" viewBox="0 0 13.843 13.844">
  <defs>
    <style>
      .cls-1 {
        fill: #fff;
        fill-rule: evenodd;
        opacity: 0.2;
      }
    </style>
  </defs>
  <path id="Forma_1" data-name="Forma 1" class="cls-1" d="M875.42,26.765a5.414,5.414,0,1,0-.74,8.269,1.155,1.155,0,0,0,.309.574l3.074,3.073a1.144,1.144,0,1,0,1.618-1.617l-3.074-3.074a1.138,1.138,0,0,0-.574-0.308A5.418,5.418,0,0,0,875.42,26.765Zm-0.97,6.686a4.041,4.041,0,1,1,0-5.715A4.048,4.048,0,0,1,874.45,33.45Z" transform="translate(-866.188 -25.188)"/>
</svg>
