<svg xmlns="http://www.w3.org/2000/svg" width="11.594" height="14.5" viewBox="0 0 11.594 14.5">
  <defs>
    <style>
      .cls-1 {
        fill-rule: evenodd;
      }
    </style>
  </defs>
  <path id="get" class="cls-1" d="M969.556,430.32l-0.835-9.41a0.357,0.357,0,0,0-.36-0.327H966.6a2.84,2.84,0,0,0-5.68,0h-1.76a0.362,0.362,0,0,0-.36.327l-0.834,9.41v0.033a2.037,2.037,0,0,0,2.146,1.9h7.3a2.038,2.038,0,0,0,2.147-1.9V430.32Zm-5.8-11.854a2.123,2.123,0,0,1,2.12,2.117h-4.24A2.123,2.123,0,0,1,963.761,418.466Zm3.648,13.064h-7.3a1.324,1.324,0,0,1-1.426-1.165l0.8-9.061h1.429v1.264a0.36,0.36,0,1,0,.72,0V421.3h4.24v1.264a0.36,0.36,0,1,0,.72,0V421.3h1.43l0.8,9.064A1.324,1.324,0,0,1,967.409,431.53Zm-1.849-5.076h-1.439v-1.438a0.36,0.36,0,1,0-.72,0v1.438h-1.438a0.361,0.361,0,1,0,0,.721H963.4v1.439a0.36,0.36,0,0,0,.72,0v-1.439h1.439A0.361,0.361,0,0,0,965.56,426.454Z" transform="translate(-957.969 -417.75)"/>
</svg>
