<svg xmlns="http://www.w3.org/2000/svg" width="12.91" height="14.5" viewBox="0 0 12.91 14.5">
  <defs>
    <style>
      .cls-1 {
        fill-rule: evenodd;
      }
    </style>
  </defs>
  <path id="del" class="cls-1" d="M1044.49,419.833h-3.02v-0.492a1.593,1.593,0,0,0-1.59-1.6h-2.87a1.6,1.6,0,0,0-1.6,1.6v0.492h-3.02a0.4,0.4,0,1,0,0,.8h0.73V430.1a2.152,2.152,0,0,0,2.15,2.154h6.34a2.161,2.161,0,0,0,2.16-2.154v-9.462h0.72A0.4,0.4,0,1,0,1044.49,419.833Zm-8.28-.492a0.8,0.8,0,0,1,.8-0.791h2.87a0.8,0.8,0,0,1,.79.791v0.492h-4.46v-0.492Zm6.75,10.759a1.354,1.354,0,0,1-1.35,1.349h-6.34a1.354,1.354,0,0,1-1.35-1.349v-9.462h9.04V430.1h0Zm-4.52-.1a0.4,0.4,0,0,0,.4-0.4v-7.117a0.4,0.4,0,0,0-.4-0.4,0.4,0.4,0,0,0-.4.4V429.6A0.4,0.4,0,0,0,1038.44,430.005Zm-2.63-.445a0.4,0.4,0,0,0,.4-0.4v-6.232a0.4,0.4,0,0,0-.4-0.4,0.4,0.4,0,0,0-.4.4v6.232A0.4,0.4,0,0,0,1035.81,429.56Zm5.26,0a0.4,0.4,0,0,0,.4-0.4v-6.232a0.4,0.4,0,1,0-.8,0v6.232A0.4,0.4,0,0,0,1041.07,429.56Z" transform="translate(-1032 -417.75)"/>
</svg>
