<svg xmlns="http://www.w3.org/2000/svg" width="15.68" height="23.125" viewBox="0 0 15.68 23.125">
  <metadata><?xpacket begin="﻿" id="W5M0MpCehiHzreSzNTczkc9d"?>
<x:xmpmeta xmlns:x="adobe:ns:meta/" x:xmptk="Adobe XMP Core 5.6-c138 79.159824, 2016/09/14-01:09:01        ">
   <rdf:RDF xmlns:rdf="http://www.w3.org/1999/02/22-rdf-syntax-ns#">
      <rdf:Description rdf:about=""/>
   </rdf:RDF>
</x:xmpmeta>
                                                                                                    
                                                                                                    
                                                                                                    
                                                                                                    
                                                                                                    
                                                                                                    
                                                                                                    
                                                                                                    
                                                                                                    
                                                                                                    
                                                                                                    
                                                                                                    
                                                                                                    
                                                                                                    
                                                                                                    
                                                                                                    
                                                                                                    
                                                                                                    
                                                                                                    
                                                                                                    
                           
<?xpacket end="w"?></metadata>
<defs>
    <style>
      .cls-1 {
        fill: #fff;
        fill-rule: evenodd;
      }
    </style>
  </defs>
  <path id="Forma_1" data-name="Forma 1" class="cls-1" d="M1220.85,29.063h-8.96v-5.6a3.36,3.36,0,0,1,6.72,0v2.686a1.334,1.334,0,0,0,1.12,1.418,1.291,1.291,0,0,0,1.12-1.418V23.467a5.6,5.6,0,0,0-11.2,0v5.6a2.2,2.2,0,0,0-2.23,2.238v7.461A2.2,2.2,0,0,0,1209.65,41h11.2a2.2,2.2,0,0,0,2.23-2.238V31.3A2.243,2.243,0,0,0,1220.85,29.063Zm-5.23,5.894V36.9a0.37,0.37,0,1,1-.74,0v-1.94a1.123,1.123,0,0,1-.75-1.045,1.12,1.12,0,0,1,2.24,0A1.054,1.054,0,0,1,1215.62,34.957Z" transform="translate(-1207.41 -17.875)"/>
</svg>
